<svg width="1279" height="1695" viewBox="0 0 1279 1695" fill="none" xmlns="http://www.w3.org/2000/svg">
<path d="M1028.64 0C1166.71 0 1278.64 111.929 1278.64 250C1278.64 343.759 1227.03 425.463 1150.66 468.249L1151.14 468.5C1122.81 491 1048.54 537.8 978.141 545C930.974 553.667 802.841 566.4 667.641 548C613.141 541.5 489.341 535.9 430.141 565.5C402.307 576.833 342.541 618.9 326.141 696.5C303.807 786.5 288.841 979.6 407.641 1032C440.808 1049.83 552.741 1078.2 735.141 1049C836.307 1038.33 1059.54 1037.2 1143.14 1118C1181.97 1142 1258.54 1224.6 1254.14 1363C1251.64 1409.33 1193.7 1646.91 1124.5 1694.51H874.5C881.167 1656.01 928.741 1431.1 923.141 1371.5C924.807 1303 902.341 1159.4 799.141 1133C670.141 1100 602.64 1107 402.141 1124C354.807 1128.5 241.84 1128.6 168.641 1093C136.307 1073.17 64.5405 1019 36.1406 961C11.6406 906.833 -24.9592 776.3 24.6406 687.5C40.3072 621.333 123.741 488 332.141 484C383.14 484.667 490.34 487 511.141 491C537.141 496 683.141 511.5 744.141 461C764.624 442.991 796.557 393.528 789.159 321.981C784.965 308.009 781.961 293.522 780.264 278.639C779.744 276.935 779.205 275.222 778.641 273.5L779.787 274.1C779.029 266.169 778.641 258.13 778.641 250C778.641 111.929 890.57 9.89849e-05 1028.64 0Z" fill="#FFDFDF"/>
</svg>
